# MagicaVoxel @ Ephtracy

# group
o 

# material
mtllib Tile.mtl
usemtl palette

# normals
vn -1 0 0
vn 1 0 0
vn 0 0 1
vn 0 0 -1
vn 0 -1 0
vn 0 1 0

# texcoords
vt 0.0292969 0.5
vt 0.0566406 0.5
vt 0.537109 0.5

# verts
v -0.5 0 0.5
v -0.5 0 -0.5
v -0.5 0.4 0.4
v -0.5 0.4 0.3
v -0.5 0.4 -0.1
v -0.5 0.4 -0.3
v -0.5 0.5 0.1
v -0.5 0.5 -0.1
v -0.5 0.5 -0.2
v -0.5 0.5 -0.3
v -0.5 0.5 -0.4
v -0.5 0.6 0.5
v -0.5 0.6 0.4
v -0.5 0.6 0.3
v -0.5 0.6 0.2
v -0.5 0.6 0.1
v -0.5 0.6 -0.2
v -0.5 0.6 -0.4
v -0.5 0.6 -0.5
v -0.5 0.7 0.5
v -0.5 0.7 0.4
v -0.5 0.7 0.3
v -0.5 0.7 0.2
v -0.5 0.7 0.1
v -0.5 0.7 -0.4
v -0.5 0.7 -0.5
v -0.5 1 0.5
v -0.5 1 -0.5
v 0.5 0 0.5
v 0.5 0 -0.5
v 0.5 0.4 0.5
v 0.5 0.4 0.4
v 0.5 0.4 0.2
v 0.5 0.4 0
v 0.5 0.4 -0.2
v 0.5 0.4 -0.4
v 0.5 0.5 0.5
v 0.5 0.5 0.4
v 0.5 0.5 0.3
v 0.5 0.5 0.2
v 0.5 0.5 0.1
v 0.5 0.5 0
v 0.5 0.5 -0.1
v 0.5 0.5 -0.2
v 0.5 0.5 -0.4
v 0.5 0.5 -0.5
v 0.5 0.6 0.4
v 0.5 0.6 0.3
v 0.5 0.6 0.2
v 0.5 0.6 0.1
v 0.5 0.6 -0.1
v 0.5 0.6 -0.4
v 0.5 0.6 -0.5
v 0.5 1 0.5
v 0.5 1 -0.5
v -0.5 0 0.5
v -0.5 0.6 0.5
v -0.5 0.7 0.5
v -0.5 1 0.5
v -0.4 0.5 0.5
v -0.4 0.6 0.5
v -0.4 0.7 0.5
v -0.3 0.4 0.5
v -0.3 0.5 0.5
v -0.2 0.4 0.5
v -0.2 0.5 0.5
v -0.2 0.6 0.5
v 0 0.5 0.5
v 0 0.6 0.5
v 0 0.7 0.5
v 0.2 0.5 0.5
v 0.2 0.6 0.5
v 0.2 0.7 0.5
v 0.3 0.4 0.5
v 0.3 0.5 0.5
v 0.3 0.6 0.5
v 0.5 0 0.5
v 0.5 0.4 0.5
v 0.5 0.5 0.5
v 0.5 1 0.5
v -0.5 0 -0.5
v -0.5 0.6 -0.5
v -0.5 0.7 -0.5
v -0.5 1 -0.5
v -0.4 0.5 -0.5
v -0.4 0.6 -0.5
v -0.4 0.7 -0.5
v -0.3 0.5 -0.5
v -0.3 0.6 -0.5
v -0.3 0.7 -0.5
v -0.2 0.5 -0.5
v -0.2 0.6 -0.5
v -0.2 0.7 -0.5
v -0.1 0.4 -0.5
v -0.1 0.5 -0.5
v -0.1 0.6 -0.5
v 0 0.4 -0.5
v 0 0.5 -0.5
v 0 0.6 -0.5
v 0.2 0.4 -0.5
v 0.2 0.5 -0.5
v 0.3 0.4 -0.5
v 0.3 0.6 -0.5
v 0.4 0.4 -0.5
v 0.4 0.5 -0.5
v 0.4 0.6 -0.5
v 0.5 0 -0.5
v 0.5 0.5 -0.5
v 0.5 0.6 -0.5
v 0.5 1 -0.5
v -0.5 0 0.5
v 0.5 0 0.5
v -0.5 0 -0.5
v 0.5 0 -0.5
v -0.5 1 0.5
v 0.5 1 0.5
v -0.5 1 -0.5
v 0.5 1 -0.5

# faces
f 3/3/1 2/3/1 1/3/1
f 4/3/1 2/3/1 3/3/1
f 5/3/1 2/3/1 4/3/1
f 6/3/1 2/3/1 5/3/1
f 7/3/1 5/3/1 4/3/1
f 8/2/1 6/2/1 5/2/1
f 8/3/1 5/3/1 7/3/1
f 9/2/1 6/2/1 8/2/1
f 10/3/1 2/3/1 6/3/1
f 10/2/1 6/2/1 9/2/1
f 11/3/1 2/3/1 10/3/1
f 12/3/1 3/3/1 1/3/1
f 13/2/1 4/2/1 3/2/1
f 13/3/1 3/3/1 12/3/1
f 14/3/1 7/3/1 4/3/1
f 14/2/1 4/2/1 13/2/1
f 15/3/1 7/3/1 14/3/1
f 16/2/1 9/2/1 8/2/1
f 16/3/1 7/3/1 15/3/1
f 16/2/1 8/2/1 7/2/1
f 17/1/1 10/1/1 9/1/1
f 17/2/1 9/2/1 16/2/1
f 17/1/1 11/1/1 10/1/1
f 18/3/1 2/3/1 11/3/1
f 18/1/1 11/1/1 17/1/1
f 19/3/1 2/3/1 18/3/1
f 20/2/1 13/2/1 12/2/1
f 21/1/1 14/1/1 13/1/1
f 21/2/1 13/2/1 20/2/1
f 22/2/1 15/2/1 14/2/1
f 22/1/1 14/1/1 21/1/1
f 23/3/1 16/3/1 15/3/1
f 23/2/1 15/2/1 22/2/1
f 24/1/1 17/1/1 16/1/1
f 24/3/1 16/3/1 23/3/1
f 24/1/1 18/1/1 17/1/1
f 25/2/1 19/2/1 18/2/1
f 25/1/1 18/1/1 24/1/1
f 26/2/1 19/2/1 25/2/1
f 27/1/1 23/1/1 22/1/1
f 27/1/1 21/1/1 20/1/1
f 27/1/1 26/1/1 25/1/1
f 27/1/1 25/1/1 24/1/1
f 27/1/1 24/1/1 23/1/1
f 27/1/1 22/1/1 21/1/1
f 28/1/1 26/1/1 27/1/1
f 29/3/2 30/3/2 31/3/2
f 31/3/2 30/3/2 32/3/2
f 32/3/2 30/3/2 33/3/2
f 33/3/2 30/3/2 34/3/2
f 34/3/2 30/3/2 35/3/2
f 35/3/2 30/3/2 36/3/2
f 31/2/2 32/2/2 37/2/2
f 32/3/2 33/3/2 38/3/2
f 37/2/2 32/2/2 38/2/2
f 38/3/2 33/3/2 39/3/2
f 33/2/2 34/2/2 40/2/2
f 39/3/2 33/3/2 40/3/2
f 40/2/2 34/2/2 41/2/2
f 34/3/2 35/3/2 42/3/2
f 41/2/2 34/2/2 42/2/2
f 42/3/2 35/3/2 43/3/2
f 35/2/2 36/2/2 44/2/2
f 43/3/2 35/3/2 44/3/2
f 36/3/2 30/3/2 45/3/2
f 44/2/2 36/2/2 45/2/2
f 45/3/2 30/3/2 46/3/2
f 38/2/2 39/2/2 47/2/2
f 37/1/2 38/1/2 47/1/2
f 39/3/2 40/3/2 48/3/2
f 47/2/2 39/2/2 48/2/2
f 40/1/2 41/1/2 49/1/2
f 48/3/2 40/3/2 49/3/2
f 42/2/2 43/2/2 50/2/2
f 49/1/2 41/1/2 50/1/2
f 41/2/2 42/2/2 50/2/2
f 43/1/2 44/1/2 51/1/2
f 50/2/2 43/2/2 51/2/2
f 44/1/2 45/1/2 51/1/2
f 45/2/2 46/2/2 52/2/2
f 51/1/2 45/1/2 52/1/2
f 52/2/2 46/2/2 53/2/2
f 49/1/2 50/1/2 54/1/2
f 47/1/2 48/1/2 54/1/2
f 52/1/2 53/1/2 54/1/2
f 51/1/2 52/1/2 54/1/2
f 37/1/2 47/1/2 54/1/2
f 50/1/2 51/1/2 54/1/2
f 48/1/2 49/1/2 54/1/2
f 54/1/2 53/1/2 55/1/2
f 60/3/3 57/3/3 56/3/3
f 61/2/3 58/2/3 57/2/3
f 61/3/3 57/3/3 60/3/3
f 62/1/3 59/1/3 58/1/3
f 62/2/3 58/2/3 61/2/3
f 63/3/3 60/3/3 56/3/3
f 64/1/3 61/1/3 60/1/3
f 64/3/3 60/3/3 63/3/3
f 64/1/3 62/1/3 61/1/3
f 65/3/3 63/3/3 56/3/3
f 65/2/3 64/2/3 63/2/3
f 66/1/3 62/1/3 64/1/3
f 66/2/3 64/2/3 65/2/3
f 67/1/3 62/1/3 66/1/3
f 68/3/3 66/3/3 65/3/3
f 68/2/3 67/2/3 66/2/3
f 69/1/3 62/1/3 67/1/3
f 69/2/3 67/2/3 68/2/3
f 70/1/3 59/1/3 62/1/3
f 70/1/3 62/1/3 69/1/3
f 71/3/3 69/3/3 68/3/3
f 71/3/3 68/3/3 65/3/3
f 72/2/3 70/2/3 69/2/3
f 72/3/3 69/3/3 71/3/3
f 73/1/3 59/1/3 70/1/3
f 73/2/3 70/2/3 72/2/3
f 74/3/3 65/3/3 56/3/3
f 74/3/3 71/3/3 65/3/3
f 75/2/3 72/2/3 71/2/3
f 75/3/3 71/3/3 74/3/3
f 76/1/3 73/1/3 72/1/3
f 76/2/3 72/2/3 75/2/3
f 77/3/3 74/3/3 56/3/3
f 78/2/3 75/2/3 74/2/3
f 78/3/3 74/3/3 77/3/3
f 79/1/3 76/1/3 75/1/3
f 79/2/3 75/2/3 78/2/3
f 80/1/3 59/1/3 73/1/3
f 80/1/3 76/1/3 79/1/3
f 80/1/3 73/1/3 76/1/3
f 81/3/4 82/3/4 85/3/4
f 82/2/4 83/2/4 86/2/4
f 85/3/4 82/3/4 86/3/4
f 83/1/4 84/1/4 87/1/4
f 86/2/4 83/2/4 87/2/4
f 85/2/4 86/2/4 88/2/4
f 81/3/4 85/3/4 88/3/4
f 86/1/4 87/1/4 89/1/4
f 88/2/4 86/2/4 89/2/4
f 87/1/4 84/1/4 90/1/4
f 89/1/4 87/1/4 90/1/4
f 88/3/4 89/3/4 91/3/4
f 81/3/4 88/3/4 91/3/4
f 89/2/4 90/2/4 92/2/4
f 91/3/4 89/3/4 92/3/4
f 90/1/4 84/1/4 93/1/4
f 92/2/4 90/2/4 93/2/4
f 81/3/4 91/3/4 94/3/4
f 91/2/4 92/2/4 95/2/4
f 94/3/4 91/3/4 95/3/4
f 92/1/4 93/1/4 96/1/4
f 95/2/4 92/2/4 96/2/4
f 81/3/4 94/3/4 97/3/4
f 94/1/4 95/1/4 97/1/4
f 95/1/4 96/1/4 97/1/4
f 97/1/4 96/1/4 98/1/4
f 96/1/4 93/1/4 99/1/4
f 98/1/4 96/1/4 99/1/4
f 97/3/4 98/3/4 100/3/4
f 81/3/4 97/3/4 100/3/4
f 98/2/4 99/2/4 101/2/4
f 100/3/4 98/3/4 101/3/4
f 81/3/4 100/3/4 102/3/4
f 100/2/4 101/2/4 102/2/4
f 99/1/4 93/1/4 103/1/4
f 102/2/4 101/2/4 103/2/4
f 101/2/4 99/2/4 103/2/4
f 81/3/4 102/3/4 104/3/4
f 102/1/4 103/1/4 104/1/4
f 104/1/4 103/1/4 105/1/4
f 103/1/4 93/1/4 106/1/4
f 105/1/4 103/1/4 106/1/4
f 104/3/4 105/3/4 107/3/4
f 81/3/4 104/3/4 107/3/4
f 105/2/4 106/2/4 108/2/4
f 107/3/4 105/3/4 108/3/4
f 106/1/4 93/1/4 109/1/4
f 108/2/4 106/2/4 109/2/4
f 93/1/4 84/1/4 110/1/4
f 109/1/4 93/1/4 110/1/4
f 113/3/5 112/3/5 111/3/5
f 114/3/5 112/3/5 113/3/5
f 115/1/6 116/1/6 117/1/6
f 117/1/6 116/1/6 118/1/6
