# MagicaVoxel @ Ephtracy

# group
o 

# material
mtllib Missile.mtl
usemtl palette

# normals
vn -1 0 0
vn 1 0 0
vn 0 0 1
vn 0 0 -1
vn 0 -1 0
vn 0 1 0

# texcoords
vt 0.0175781 0.5
vt 0.841797 0.5
vt 0.966797 0.5

# verts
v -1.1 1.6 0.5
v -1.1 1.6 0.4
v -1.1 1.6 0.1
v -1.1 1.7 0.5
v -1.1 1.7 0.4
v -1.1 1.7 0.1
v -1 1.6 0.1
v -1 1.6 -0.2
v -1 1.7 0.1
v -1 1.7 -0.2
v -0.9 1.6 -0.2
v -0.9 1.6 -0.4
v -0.9 1.7 -0.2
v -0.9 1.7 -0.4
v -0.8 1.6 -0.4
v -0.8 1.6 -0.6
v -0.8 1.7 -0.4
v -0.8 1.7 -0.6
v -0.5 1.2 1.5
v -0.5 1.2 1.3
v -0.5 1.6 -0.6
v -0.5 1.6 -0.7
v -0.5 1.7 -0.6
v -0.5 1.7 -0.7
v -0.5 1.9 1.5
v -0.5 1.9 1.3
v -0.4 1.1 1.5
v -0.4 1.1 1.3
v -0.4 1.2 1.6
v -0.4 1.2 1.5
v -0.4 1.2 1.3
v -0.4 1.2 -1.5
v -0.4 1.2 -1.6
v -0.4 1.6 0.5
v -0.4 1.6 0.4
v -0.4 1.6 -0.7
v -0.4 1.7 0.5
v -0.4 1.7 0.4
v -0.4 1.7 -0.7
v -0.4 1.9 1.6
v -0.4 1.9 1.5
v -0.4 1.9 1.3
v -0.4 1.9 -1.5
v -0.4 1.9 -1.6
v -0.4 2 1.5
v -0.4 2 1.3
v -0.3 1.3 -1.6
v -0.3 1.3 -1.7
v -0.3 1.8 -1.6
v -0.3 1.8 -1.7
v -0.2 1.4 -1.7
v -0.2 1.4 -1.8
v -0.2 1.7 -1.7
v -0.2 1.7 -1.8
v -0.1 1.5 -1.8
v -0.1 1.5 -1.9
v -0.1 1.6 -1.8
v -0.1 1.6 -1.9
v 0.1 1.5 -1.8
v 0.1 1.5 -1.9
v 0.1 1.6 -1.8
v 0.1 1.6 -1.9
v 0.2 1.4 -1.7
v 0.2 1.4 -1.8
v 0.2 1.7 -1.7
v 0.2 1.7 -1.8
v 0.3 1.3 -1.6
v 0.3 1.3 -1.7
v 0.3 1.8 -1.6
v 0.3 1.8 -1.7
v 0.4 1.1 1.5
v 0.4 1.1 1.3
v 0.4 1.2 1.6
v 0.4 1.2 1.5
v 0.4 1.2 1.3
v 0.4 1.2 -1.5
v 0.4 1.2 -1.6
v 0.4 1.6 0.5
v 0.4 1.6 0.4
v 0.4 1.6 -0.8
v 0.4 1.7 0.5
v 0.4 1.7 0.4
v 0.4 1.7 -0.8
v 0.4 1.9 1.6
v 0.4 1.9 1.5
v 0.4 1.9 1.3
v 0.4 1.9 -1.5
v 0.4 1.9 -1.6
v 0.4 2 1.5
v 0.4 2 1.3
v 0.5 1.2 1.5
v 0.5 1.2 1.3
v 0.5 1.6 -0.7
v 0.5 1.6 -0.8
v 0.5 1.7 -0.7
v 0.5 1.7 -0.8
v 0.5 1.9 1.5
v 0.5 1.9 1.3
v 0.6 1.6 -0.6
v 0.6 1.6 -0.7
v 0.6 1.7 -0.6
v 0.6 1.7 -0.7
v 0.8 1.6 -0.4
v 0.8 1.6 -0.6
v 0.8 1.7 -0.4
v 0.8 1.7 -0.6
v 1 1.6 -0.2
v 1 1.6 -0.4
v 1 1.7 -0.2
v 1 1.7 -0.4
v 1.1 1.6 0.5
v 1.1 1.6 0.4
v 1.1 1.6 -0.2
v 1.1 1.7 0.5
v 1.1 1.7 0.4
v 1.1 1.7 -0.2
v -0.4 1.2 1.6
v -0.4 1.9 1.6
v 0.4 1.2 1.6
v 0.4 1.9 1.6
v -0.5 1.2 1.5
v -0.5 1.9 1.5
v -0.4 1.1 1.5
v -0.4 1.2 1.5
v -0.4 1.9 1.5
v -0.4 2 1.5
v 0.4 1.1 1.5
v 0.4 1.2 1.5
v 0.4 1.9 1.5
v 0.4 2 1.5
v 0.5 1.2 1.5
v 0.5 1.9 1.5
v -1.1 1.6 0.5
v -1.1 1.7 0.5
v -0.4 1.6 0.5
v -0.4 1.7 0.5
v 0.4 1.6 0.5
v 0.4 1.7 0.5
v 1.1 1.6 0.5
v 1.1 1.7 0.5
v -0.5 1.2 1.3
v -0.5 1.9 1.3
v -0.4 1.1 1.3
v -0.4 1.2 1.3
v -0.4 1.9 1.3
v -0.4 2 1.3
v 0.4 1.1 1.3
v 0.4 1.2 1.3
v 0.4 1.9 1.3
v 0.4 2 1.3
v 0.5 1.2 1.3
v 0.5 1.9 1.3
v -1.1 1.6 0.1
v -1.1 1.7 0.1
v -1 1.6 0.1
v -1 1.7 0.1
v -1 1.6 -0.2
v -1 1.7 -0.2
v -0.9 1.6 -0.2
v -0.9 1.7 -0.2
v 1 1.6 -0.2
v 1 1.7 -0.2
v 1.1 1.6 -0.2
v 1.1 1.7 -0.2
v -0.9 1.6 -0.4
v -0.9 1.7 -0.4
v -0.8 1.6 -0.4
v -0.8 1.7 -0.4
v 0.8 1.6 -0.4
v 0.8 1.7 -0.4
v 1 1.6 -0.4
v 1 1.7 -0.4
v -0.8 1.6 -0.6
v -0.8 1.7 -0.6
v -0.5 1.6 -0.6
v -0.5 1.7 -0.6
v 0.6 1.6 -0.6
v 0.6 1.7 -0.6
v 0.8 1.6 -0.6
v 0.8 1.7 -0.6
v -0.5 1.6 -0.7
v -0.5 1.7 -0.7
v -0.4 1.6 -0.7
v -0.4 1.7 -0.7
v 0.5 1.6 -0.7
v 0.5 1.7 -0.7
v 0.6 1.6 -0.7
v 0.6 1.7 -0.7
v 0.4 1.6 -0.8
v 0.4 1.7 -0.8
v 0.5 1.6 -0.8
v 0.5 1.7 -0.8
v -0.4 1.2 -1.6
v -0.4 1.9 -1.6
v -0.3 1.3 -1.6
v -0.3 1.8 -1.6
v 0.3 1.3 -1.6
v 0.3 1.8 -1.6
v 0.4 1.2 -1.6
v 0.4 1.9 -1.6
v -0.3 1.3 -1.7
v -0.3 1.8 -1.7
v -0.2 1.4 -1.7
v -0.2 1.7 -1.7
v 0.2 1.4 -1.7
v 0.2 1.7 -1.7
v 0.3 1.3 -1.7
v 0.3 1.8 -1.7
v -0.2 1.4 -1.8
v -0.2 1.7 -1.8
v -0.1 1.5 -1.8
v -0.1 1.6 -1.8
v 0.1 1.5 -1.8
v 0.1 1.6 -1.8
v 0.2 1.4 -1.8
v 0.2 1.7 -1.8
v -0.1 1.5 -1.9
v -0.1 1.6 -1.9
v 0.1 1.5 -1.9
v 0.1 1.6 -1.9
v -0.4 1.1 1.5
v 0.4 1.1 1.5
v -0.4 1.1 1.3
v 0.4 1.1 1.3
v -0.4 1.2 1.6
v 0.4 1.2 1.6
v -0.5 1.2 1.5
v -0.4 1.2 1.5
v 0.4 1.2 1.5
v 0.5 1.2 1.5
v -0.5 1.2 1.3
v -0.4 1.2 1.3
v 0.4 1.2 1.3
v 0.5 1.2 1.3
v -0.4 1.2 -1.5
v 0.4 1.2 -1.5
v -0.4 1.2 -1.6
v 0.4 1.2 -1.6
v -0.3 1.3 -1.6
v 0.3 1.3 -1.6
v -0.3 1.3 -1.7
v 0.3 1.3 -1.7
v -0.2 1.4 -1.7
v 0.2 1.4 -1.7
v -0.2 1.4 -1.8
v 0.2 1.4 -1.8
v -0.1 1.5 -1.8
v 0.1 1.5 -1.8
v -0.1 1.5 -1.9
v 0.1 1.5 -1.9
v -1.1 1.6 0.5
v -0.4 1.6 0.5
v 0.4 1.6 0.5
v 1.1 1.6 0.5
v -1.1 1.6 0.4
v -0.4 1.6 0.4
v 0.4 1.6 0.4
v 1.1 1.6 0.4
v -1.1 1.6 0.1
v -1 1.6 0.1
v -1 1.6 -0.2
v -0.9 1.6 -0.2
v 1 1.6 -0.2
v 1.1 1.6 -0.2
v -0.9 1.6 -0.4
v -0.8 1.6 -0.4
v 0.8 1.6 -0.4
v 1 1.6 -0.4
v -0.8 1.6 -0.6
v -0.5 1.6 -0.6
v 0.6 1.6 -0.6
v 0.8 1.6 -0.6
v -0.5 1.6 -0.7
v -0.4 1.6 -0.7
v 0.5 1.6 -0.7
v 0.6 1.6 -0.7
v 0.4 1.6 -0.8
v 0.5 1.6 -0.8
v -0.1 1.6 -1.8
v 0.1 1.6 -1.8
v -0.1 1.6 -1.9
v 0.1 1.6 -1.9
v -1.1 1.7 0.5
v -0.4 1.7 0.5
v 0.4 1.7 0.5
v 1.1 1.7 0.5
v -1.1 1.7 0.4
v -0.4 1.7 0.4
v 0.4 1.7 0.4
v 1.1 1.7 0.4
v -1.1 1.7 0.1
v -1 1.7 0.1
v -1 1.7 -0.2
v -0.9 1.7 -0.2
v 1 1.7 -0.2
v 1.1 1.7 -0.2
v -0.9 1.7 -0.4
v -0.8 1.7 -0.4
v 0.8 1.7 -0.4
v 1 1.7 -0.4
v -0.8 1.7 -0.6
v -0.5 1.7 -0.6
v 0.6 1.7 -0.6
v 0.8 1.7 -0.6
v -0.5 1.7 -0.7
v -0.4 1.7 -0.7
v 0.5 1.7 -0.7
v 0.6 1.7 -0.7
v 0.4 1.7 -0.8
v 0.5 1.7 -0.8
v -0.2 1.7 -1.7
v 0.2 1.7 -1.7
v -0.2 1.7 -1.8
v 0.2 1.7 -1.8
v -0.3 1.8 -1.6
v 0.3 1.8 -1.6
v -0.3 1.8 -1.7
v 0.3 1.8 -1.7
v -0.4 1.9 1.6
v 0.4 1.9 1.6
v -0.5 1.9 1.5
v -0.4 1.9 1.5
v 0.4 1.9 1.5
v 0.5 1.9 1.5
v -0.5 1.9 1.3
v -0.4 1.9 1.3
v 0.4 1.9 1.3
v 0.5 1.9 1.3
v -0.4 1.9 -1.5
v 0.4 1.9 -1.5
v -0.4 1.9 -1.6
v 0.4 1.9 -1.6
v -0.4 2 1.5
v 0.4 2 1.5
v -0.4 2 1.3
v 0.4 2 1.3

# faces
f 4/1/1 2/1/1 1/1/1
f 5/3/1 3/3/1 2/3/1
f 5/1/1 2/1/1 4/1/1
f 6/3/1 3/3/1 5/3/1
f 9/3/1 8/3/1 7/3/1
f 10/3/1 8/3/1 9/3/1
f 13/3/1 12/3/1 11/3/1
f 14/3/1 12/3/1 13/3/1
f 17/3/1 16/3/1 15/3/1
f 18/3/1 16/3/1 17/3/1
f 23/3/1 22/3/1 21/3/1
f 24/3/1 22/3/1 23/3/1
f 25/2/1 20/2/1 19/2/1
f 26/2/1 20/2/1 25/2/1
f 30/2/1 28/2/1 27/2/1
f 31/2/1 28/2/1 30/2/1
f 34/3/1 32/3/1 31/3/1
f 35/3/1 32/3/1 34/3/1
f 36/3/1 32/3/1 35/3/1
f 37/3/1 34/3/1 31/3/1
f 39/3/1 32/3/1 36/3/1
f 40/2/1 30/2/1 29/2/1
f 41/2/1 30/2/1 40/2/1
f 42/3/1 39/3/1 38/3/1
f 42/3/1 38/3/1 37/3/1
f 42/3/1 37/3/1 31/3/1
f 43/2/1 33/2/1 32/2/1
f 43/3/1 32/3/1 39/3/1
f 43/3/1 39/3/1 42/3/1
f 44/2/1 33/2/1 43/2/1
f 45/2/1 42/2/1 41/2/1
f 46/2/1 42/2/1 45/2/1
f 49/2/1 48/2/1 47/2/1
f 50/2/1 48/2/1 49/2/1
f 53/2/1 52/2/1 51/2/1
f 54/2/1 52/2/1 53/2/1
f 57/2/1 56/2/1 55/2/1
f 58/2/1 56/2/1 57/2/1
f 59/2/2 60/2/2 61/2/2
f 61/2/2 60/2/2 62/2/2
f 63/2/2 64/2/2 65/2/2
f 65/2/2 64/2/2 66/2/2
f 67/2/2 68/2/2 69/2/2
f 69/2/2 68/2/2 70/2/2
f 71/2/2 72/2/2 74/2/2
f 74/2/2 72/2/2 75/2/2
f 75/3/2 76/3/2 78/3/2
f 78/3/2 76/3/2 79/3/2
f 79/3/2 76/3/2 80/3/2
f 75/3/2 78/3/2 81/3/2
f 80/3/2 76/3/2 83/3/2
f 73/2/2 74/2/2 84/2/2
f 84/2/2 74/2/2 85/2/2
f 82/3/2 83/3/2 86/3/2
f 81/3/2 82/3/2 86/3/2
f 75/3/2 81/3/2 86/3/2
f 76/2/2 77/2/2 87/2/2
f 83/3/2 76/3/2 87/3/2
f 86/3/2 83/3/2 87/3/2
f 87/2/2 77/2/2 88/2/2
f 85/2/2 86/2/2 89/2/2
f 89/2/2 86/2/2 90/2/2
f 93/3/2 94/3/2 95/3/2
f 95/3/2 94/3/2 96/3/2
f 91/2/2 92/2/2 97/2/2
f 97/2/2 92/2/2 98/2/2
f 99/3/2 100/3/2 101/3/2
f 101/3/2 100/3/2 102/3/2
f 103/3/2 104/3/2 105/3/2
f 105/3/2 104/3/2 106/3/2
f 107/3/2 108/3/2 109/3/2
f 109/3/2 108/3/2 110/3/2
f 111/1/2 112/1/2 114/1/2
f 112/3/2 113/3/2 115/3/2
f 114/1/2 112/1/2 115/1/2
f 115/3/2 113/3/2 116/3/2
f 119/2/3 118/2/3 117/2/3
f 120/2/3 118/2/3 119/2/3
f 124/2/3 122/2/3 121/2/3
f 125/2/3 122/2/3 124/2/3
f 127/2/3 124/2/3 123/2/3
f 128/2/3 124/2/3 127/2/3
f 129/2/3 126/2/3 125/2/3
f 130/2/3 126/2/3 129/2/3
f 131/2/3 129/2/3 128/2/3
f 132/2/3 129/2/3 131/2/3
f 135/1/3 134/1/3 133/1/3
f 136/1/3 134/1/3 135/1/3
f 139/1/3 138/1/3 137/1/3
f 140/1/3 138/1/3 139/1/3
f 141/2/4 142/2/4 144/2/4
f 144/2/4 142/2/4 145/2/4
f 143/2/4 144/2/4 147/2/4
f 147/2/4 144/2/4 148/2/4
f 145/2/4 146/2/4 149/2/4
f 149/2/4 146/2/4 150/2/4
f 148/2/4 149/2/4 151/2/4
f 151/2/4 149/2/4 152/2/4
f 153/3/4 154/3/4 155/3/4
f 155/3/4 154/3/4 156/3/4
f 157/3/4 158/3/4 159/3/4
f 159/3/4 158/3/4 160/3/4
f 161/3/4 162/3/4 163/3/4
f 163/3/4 162/3/4 164/3/4
f 165/3/4 166/3/4 167/3/4
f 167/3/4 166/3/4 168/3/4
f 169/3/4 170/3/4 171/3/4
f 171/3/4 170/3/4 172/3/4
f 173/3/4 174/3/4 175/3/4
f 175/3/4 174/3/4 176/3/4
f 177/3/4 178/3/4 179/3/4
f 179/3/4 178/3/4 180/3/4
f 181/3/4 182/3/4 183/3/4
f 183/3/4 182/3/4 184/3/4
f 185/3/4 186/3/4 187/3/4
f 187/3/4 186/3/4 188/3/4
f 189/3/4 190/3/4 191/3/4
f 191/3/4 190/3/4 192/3/4
f 193/2/4 194/2/4 195/2/4
f 195/2/4 194/2/4 196/2/4
f 193/2/4 195/2/4 197/2/4
f 196/2/4 194/2/4 198/2/4
f 193/2/4 197/2/4 199/2/4
f 197/2/4 198/2/4 199/2/4
f 198/2/4 194/2/4 200/2/4
f 199/2/4 198/2/4 200/2/4
f 201/2/4 202/2/4 203/2/4
f 203/2/4 202/2/4 204/2/4
f 201/2/4 203/2/4 205/2/4
f 204/2/4 202/2/4 206/2/4
f 201/2/4 205/2/4 207/2/4
f 205/2/4 206/2/4 207/2/4
f 206/2/4 202/2/4 208/2/4
f 207/2/4 206/2/4 208/2/4
f 209/2/4 210/2/4 211/2/4
f 211/2/4 210/2/4 212/2/4
f 209/2/4 211/2/4 213/2/4
f 212/2/4 210/2/4 214/2/4
f 209/2/4 213/2/4 215/2/4
f 213/2/4 214/2/4 215/2/4
f 214/2/4 210/2/4 216/2/4
f 215/2/4 214/2/4 216/2/4
f 217/2/4 218/2/4 219/2/4
f 219/2/4 218/2/4 220/2/4
f 223/2/5 222/2/5 221/2/5
f 224/2/5 222/2/5 223/2/5
f 228/2/5 226/2/5 225/2/5
f 229/2/5 226/2/5 228/2/5
f 231/2/5 228/2/5 227/2/5
f 232/2/5 228/2/5 231/2/5
f 233/2/5 230/2/5 229/2/5
f 234/2/5 230/2/5 233/2/5
f 235/3/5 233/3/5 232/3/5
f 236/3/5 233/3/5 235/3/5
f 237/2/5 236/2/5 235/2/5
f 238/2/5 236/2/5 237/2/5
f 241/2/5 240/2/5 239/2/5
f 242/2/5 240/2/5 241/2/5
f 245/2/5 244/2/5 243/2/5
f 246/2/5 244/2/5 245/2/5
f 249/2/5 248/2/5 247/2/5
f 250/2/5 248/2/5 249/2/5
f 255/1/5 252/1/5 251/1/5
f 256/1/5 252/1/5 255/1/5
f 257/1/5 254/1/5 253/1/5
f 258/1/5 254/1/5 257/1/5
f 259/3/5 256/3/5 255/3/5
f 260/3/5 256/3/5 259/3/5
f 261/3/5 256/3/5 260/3/5
f 262/3/5 256/3/5 261/3/5
f 263/3/5 258/3/5 257/3/5
f 264/3/5 258/3/5 263/3/5
f 265/3/5 256/3/5 262/3/5
f 266/3/5 256/3/5 265/3/5
f 267/3/5 263/3/5 257/3/5
f 268/3/5 263/3/5 267/3/5
f 269/3/5 256/3/5 266/3/5
f 270/3/5 256/3/5 269/3/5
f 271/3/5 267/3/5 257/3/5
f 272/3/5 267/3/5 271/3/5
f 273/3/5 256/3/5 270/3/5
f 274/3/5 256/3/5 273/3/5
f 275/3/5 271/3/5 257/3/5
f 276/3/5 271/3/5 275/3/5
f 277/3/5 275/3/5 257/3/5
f 278/3/5 275/3/5 277/3/5
f 279/2/6 280/2/6 281/2/6
f 281/2/6 280/2/6 282/2/6
f 283/1/6 284/1/6 287/1/6
f 287/1/6 284/1/6 288/1/6
f 285/1/6 286/1/6 289/1/6
f 289/1/6 286/1/6 290/1/6
f 287/3/6 288/3/6 291/3/6
f 291/3/6 288/3/6 292/3/6
f 292/3/6 288/3/6 293/3/6
f 293/3/6 288/3/6 294/3/6
f 289/3/6 290/3/6 295/3/6
f 295/3/6 290/3/6 296/3/6
f 294/3/6 288/3/6 297/3/6
f 297/3/6 288/3/6 298/3/6
f 289/3/6 295/3/6 299/3/6
f 299/3/6 295/3/6 300/3/6
f 298/3/6 288/3/6 301/3/6
f 301/3/6 288/3/6 302/3/6
f 289/3/6 299/3/6 303/3/6
f 303/3/6 299/3/6 304/3/6
f 302/3/6 288/3/6 305/3/6
f 305/3/6 288/3/6 306/3/6
f 289/3/6 303/3/6 307/3/6
f 307/3/6 303/3/6 308/3/6
f 289/3/6 307/3/6 309/3/6
f 309/3/6 307/3/6 310/3/6
f 311/2/6 312/2/6 313/2/6
f 313/2/6 312/2/6 314/2/6
f 315/2/6 316/2/6 317/2/6
f 317/2/6 316/2/6 318/2/6
f 319/2/6 320/2/6 322/2/6
f 322/2/6 320/2/6 323/2/6
f 321/2/6 322/2/6 325/2/6
f 325/2/6 322/2/6 326/2/6
f 323/2/6 324/2/6 327/2/6
f 327/2/6 324/2/6 328/2/6
f 326/3/6 327/3/6 329/3/6
f 329/3/6 327/3/6 330/3/6
f 329/2/6 330/2/6 331/2/6
f 331/2/6 330/2/6 332/2/6
f 333/2/6 334/2/6 335/2/6
f 335/2/6 334/2/6 336/2/6
