# MagicaVoxel @ Ephtracy

# group
o 

# material
mtllib glider.mtl
usemtl palette

# normals
vn -1 0 0
vn 1 0 0
vn 0 0 1
vn 0 0 -1
vn 0 -1 0
vn 0 1 0

# texcoords
vt 0.0136719 0.5
vt 0.0488281 0.5

# verts
v -1 1.8 -0.3
v -1 1.8 -0.8
v -1 1.9 -0.3
v -1 1.9 -0.8
v -0.9 1.8 -0.2
v -0.9 1.8 -0.3
v -0.9 1.8 -0.8
v -0.9 1.8 -0.9
v -0.9 1.9 -0.2
v -0.9 1.9 -0.3
v -0.9 1.9 -0.8
v -0.9 1.9 -0.9
v -0.8 1.8 -0.1
v -0.8 1.8 -0.2
v -0.8 1.8 -0.9
v -0.8 1.8 -1
v -0.8 1.9 -0.1
v -0.8 1.9 -0.2
v -0.8 1.9 -0.9
v -0.8 1.9 -1
v -0.7 1.8 0.6
v -0.7 1.8 0.2
v -0.7 1.8 -5.96046e-08
v -0.7 1.8 -0.1
v -0.7 1.8 -1
v -0.7 1.8 -1.1
v -0.7 1.9 0.6
v -0.7 1.9 0.2
v -0.7 1.9 -5.96046e-08
v -0.7 1.9 -0.1
v -0.7 1.9 -1
v -0.7 1.9 -1.1
v -0.6 1.8 0.7
v -0.6 1.8 0.6
v -0.6 1.8 0.2
v -0.6 1.8 0.1
v -0.6 1.9 0.7
v -0.6 1.9 0.6
v -0.6 1.9 0.2
v -0.6 1.9 0.1
v -0.5 1.8 0.8
v -0.5 1.8 0.7
v -0.5 1.8 0.1
v -0.5 1.8 -5.96046e-08
v -0.5 1.9 0.8
v -0.5 1.9 0.7
v -0.5 1.9 0.1
v -0.5 1.9 -5.96046e-08
v 0.1 1.8 0.7
v 0.1 1.8 0.6
v 0.1 1.8 -0.8
v 0.1 1.8 -0.9
v 0.1 1.9 0.7
v 0.1 1.9 0.6
v 0.1 1.9 -0.8
v 0.1 1.9 -0.9
v 0.2 1.8 0.8
v 0.2 1.8 0.7
v 0.2 1.8 -0.9
v 0.2 1.8 -1
v 0.2 1.9 0.8
v 0.2 1.9 0.7
v 0.2 1.9 -0.9
v 0.2 1.9 -1
v 0.3 1.8 -1
v 0.3 1.8 -1.1
v 0.3 1.9 -1
v 0.3 1.9 -1.1
v -0.3 1.8 -1
v -0.3 1.8 -1.1
v -0.3 1.9 -1
v -0.3 1.9 -1.1
v -0.2 1.8 0.8
v -0.2 1.8 0.7
v -0.2 1.8 -0.9
v -0.2 1.8 -1
v -0.2 1.9 0.8
v -0.2 1.9 0.7
v -0.2 1.9 -0.9
v -0.2 1.9 -1
v -0.1 1.8 0.7
v -0.1 1.8 0.6
v -0.1 1.8 -0.8
v -0.1 1.8 -0.9
v -0.1 1.9 0.7
v -0.1 1.9 0.6
v -0.1 1.9 -0.8
v -0.1 1.9 -0.9
v 0.6 1.8 0.8
v 0.6 1.8 0.7
v 0.6 1.8 0.1
v 0.6 1.8 -5.96046e-08
v 0.6 1.9 0.8
v 0.6 1.9 0.7
v 0.6 1.9 0.1
v 0.6 1.9 -5.96046e-08
v 0.7 1.8 0.7
v 0.7 1.8 0.6
v 0.7 1.8 0.2
v 0.7 1.8 0.1
v 0.7 1.8 -5.96046e-08
v 0.7 1.8 -0.1
v 0.7 1.8 -1
v 0.7 1.8 -1.1
v 0.7 1.9 0.7
v 0.7 1.9 0.6
v 0.7 1.9 0.2
v 0.7 1.9 0.1
v 0.7 1.9 -5.96046e-08
v 0.7 1.9 -0.1
v 0.7 1.9 -1
v 0.7 1.9 -1.1
v 0.8 1.8 0.6
v 0.8 1.8 0.2
v 0.8 1.8 -0.1
v 0.8 1.8 -0.2
v 0.8 1.8 -0.9
v 0.8 1.8 -1
v 0.8 1.9 0.6
v 0.8 1.9 0.2
v 0.8 1.9 -0.1
v 0.8 1.9 -0.2
v 0.8 1.9 -0.9
v 0.8 1.9 -1
v 0.9 1.8 -0.2
v 0.9 1.8 -0.3
v 0.9 1.8 -0.8
v 0.9 1.8 -0.9
v 0.9 1.9 -0.2
v 0.9 1.9 -0.3
v 0.9 1.9 -0.8
v 0.9 1.9 -0.9
v 1 1.8 -0.3
v 1 1.8 -0.8
v 1 1.9 -0.3
v 1 1.9 -0.8
v -0.5 1.8 0.8
v -0.5 1.9 0.8
v -0.2 1.8 0.8
v -0.2 1.9 0.8
v 0.2 1.8 0.8
v 0.2 1.9 0.8
v 0.6 1.8 0.8
v 0.6 1.9 0.8
v -0.6 1.8 0.7
v -0.6 1.9 0.7
v -0.5 1.8 0.7
v -0.5 1.9 0.7
v -0.2 1.8 0.7
v -0.2 1.9 0.7
v -0.1 1.8 0.7
v -0.1 1.9 0.7
v 0.1 1.8 0.7
v 0.1 1.9 0.7
v 0.2 1.8 0.7
v 0.2 1.9 0.7
v 0.6 1.8 0.7
v 0.6 1.9 0.7
v 0.7 1.8 0.7
v 0.7 1.9 0.7
v -0.7 1.8 0.6
v -0.7 1.9 0.6
v -0.6 1.8 0.6
v -0.6 1.9 0.6
v -0.1 1.8 0.6
v -0.1 1.9 0.6
v 0.1 1.8 0.6
v 0.1 1.9 0.6
v 0.7 1.8 0.6
v 0.7 1.9 0.6
v 0.8 1.8 0.6
v 0.8 1.9 0.6
v -0.7 1.8 -5.96046e-08
v -0.7 1.9 -5.96046e-08
v -0.5 1.8 -5.96046e-08
v -0.5 1.9 -5.96046e-08
v 0.6 1.8 -5.96046e-08
v 0.6 1.9 -5.96046e-08
v 0.7 1.8 -5.96046e-08
v 0.7 1.9 -5.96046e-08
v -0.8 1.8 -0.1
v -0.8 1.9 -0.1
v -0.7 1.8 -0.1
v -0.7 1.9 -0.1
v 0.7 1.8 -0.1
v 0.7 1.9 -0.1
v 0.8 1.8 -0.1
v 0.8 1.9 -0.1
v -0.9 1.8 -0.2
v -0.9 1.9 -0.2
v -0.8 1.8 -0.2
v -0.8 1.9 -0.2
v 0.8 1.8 -0.2
v 0.8 1.9 -0.2
v 0.9 1.8 -0.2
v 0.9 1.9 -0.2
v -1 1.8 -0.3
v -1 1.9 -0.3
v -0.9 1.8 -0.3
v -0.9 1.9 -0.3
v 0.9 1.8 -0.3
v 0.9 1.9 -0.3
v 1 1.8 -0.3
v 1 1.9 -0.3
v -0.7 1.8 0.2
v -0.7 1.9 0.2
v -0.6 1.8 0.2
v -0.6 1.9 0.2
v 0.7 1.8 0.2
v 0.7 1.9 0.2
v 0.8 1.8 0.2
v 0.8 1.9 0.2
v -0.6 1.8 0.1
v -0.6 1.9 0.1
v -0.5 1.8 0.1
v -0.5 1.9 0.1
v 0.6 1.8 0.1
v 0.6 1.9 0.1
v 0.7 1.8 0.1
v 0.7 1.9 0.1
v -1 1.8 -0.8
v -1 1.9 -0.8
v -0.9 1.8 -0.8
v -0.9 1.9 -0.8
v -0.1 1.8 -0.8
v -0.1 1.9 -0.8
v 0.1 1.8 -0.8
v 0.1 1.9 -0.8
v 0.9 1.8 -0.8
v 0.9 1.9 -0.8
v 1 1.8 -0.8
v 1 1.9 -0.8
v -0.9 1.8 -0.9
v -0.9 1.9 -0.9
v -0.8 1.8 -0.9
v -0.8 1.9 -0.9
v -0.2 1.8 -0.9
v -0.2 1.9 -0.9
v -0.1 1.8 -0.9
v -0.1 1.9 -0.9
v 0.1 1.8 -0.9
v 0.1 1.9 -0.9
v 0.2 1.8 -0.9
v 0.2 1.9 -0.9
v 0.8 1.8 -0.9
v 0.8 1.9 -0.9
v 0.9 1.8 -0.9
v 0.9 1.9 -0.9
v -0.8 1.8 -1
v -0.8 1.9 -1
v -0.7 1.8 -1
v -0.7 1.9 -1
v -0.3 1.8 -1
v -0.3 1.9 -1
v -0.2 1.8 -1
v -0.2 1.9 -1
v 0.2 1.8 -1
v 0.2 1.9 -1
v 0.3 1.8 -1
v 0.3 1.9 -1
v 0.7 1.8 -1
v 0.7 1.9 -1
v 0.8 1.8 -1
v 0.8 1.9 -1
v -0.7 1.8 -1.1
v -0.7 1.9 -1.1
v -0.3 1.8 -1.1
v -0.3 1.9 -1.1
v 0.3 1.8 -1.1
v 0.3 1.9 -1.1
v 0.7 1.8 -1.1
v 0.7 1.9 -1.1
v -0.5 1.8 0.8
v -0.2 1.8 0.8
v 0.2 1.8 0.8
v 0.6 1.8 0.8
v -0.6 1.8 0.7
v -0.5 1.8 0.7
v -0.2 1.8 0.7
v -0.1 1.8 0.7
v 0.1 1.8 0.7
v 0.2 1.8 0.7
v 0.6 1.8 0.7
v 0.7 1.8 0.7
v -0.7 1.8 0.6
v -0.6 1.8 0.6
v -0.5 1.8 0.6
v -0.1 1.8 0.6
v 0.1 1.8 0.6
v 0.6 1.8 0.6
v 0.7 1.8 0.6
v 0.8 1.8 0.6
v -0.4 1.8 0.5
v -0.2 1.8 0.5
v -0.1 1.8 0.5
v 0.1 1.8 0.5
v 0.2 1.8 0.5
v 0.5 1.8 0.5
v -0.2 1.8 0.4
v -0.1 1.8 0.4
v 0.1 1.8 0.4
v 0.2 1.8 0.4
v -0.7 1.8 0.2
v -0.6 1.8 0.2
v -0.4 1.8 0.2
v -0.3 1.8 0.2
v 0.7 1.8 0.2
v 0.8 1.8 0.2
v -0.6 1.8 0.1
v -0.5 1.8 0.1
v -0.4 1.8 0.1
v -0.3 1.8 0.1
v -0.2 1.8 0.1
v 0.4 1.8 0.1
v 0.5 1.8 0.1
v 0.6 1.8 0.1
v 0.7 1.8 0.1
v -0.7 1.8 -5.96046e-08
v -0.5 1.8 -5.96046e-08
v -0.4 1.8 -5.96046e-08
v -0.2 1.8 -5.96046e-08
v -0.1 1.8 -5.96046e-08
v 0.2 1.8 -5.96046e-08
v 0.4 1.8 -5.96046e-08
v 0.6 1.8 -5.96046e-08
v 0.7 1.8 -5.96046e-08
v -0.8 1.8 -0.1
v -0.7 1.8 -0.1
v -0.5 1.8 -0.1
v -0.4 1.8 -0.1
v 0.1 1.8 -0.1
v 0.2 1.8 -0.1
v 0.4 1.8 -0.1
v 0.5 1.8 -0.1
v 0.7 1.8 -0.1
v 0.8 1.8 -0.1
v -0.9 1.8 -0.2
v -0.8 1.8 -0.2
v -0.7 1.8 -0.2
v -0.6 1.8 -0.2
v -0.5 1.8 -0.2
v -0.4 1.8 -0.2
v -0.2 1.8 -0.2
v 0.2 1.8 -0.2
v 0.4 1.8 -0.2
v 0.5 1.8 -0.2
v 0.6 1.8 -0.2
v 0.7 1.8 -0.2
v 0.8 1.8 -0.2
v 0.9 1.8 -0.2
v -1 1.8 -0.3
v -0.9 1.8 -0.3
v -0.8 1.8 -0.3
v -0.6 1.8 -0.3
v -0.2 1.8 -0.3
v -0.1 1.8 -0.3
v 0.1 1.8 -0.3
v 0.2 1.8 -0.3
v 0.6 1.8 -0.3
v 0.8 1.8 -0.3
v 0.9 1.8 -0.3
v 1 1.8 -0.3
v -0.2 1.8 -0.5
v -0.1 1.8 -0.5
v 0.1 1.8 -0.5
v 0.2 1.8 -0.5
v -0.8 1.8 -0.6
v -0.7 1.8 -0.6
v -0.3 1.8 -0.6
v -0.2 1.8 -0.6
v 0.2 1.8 -0.6
v 0.3 1.8 -0.6
v 0.7 1.8 -0.6
v 0.8 1.8 -0.6
v -0.9 1.8 -0.7
v -0.8 1.8 -0.7
v -0.7 1.8 -0.7
v -0.5 1.8 -0.7
v -0.4 1.8 -0.7
v -0.3 1.8 -0.7
v 0.3 1.8 -0.7
v 0.4 1.8 -0.7
v 0.5 1.8 -0.7
v 0.7 1.8 -0.7
v 0.8 1.8 -0.7
v 0.9 1.8 -0.7
v -1 1.8 -0.8
v -0.9 1.8 -0.8
v -0.8 1.8 -0.8
v -0.6 1.8 -0.8
v -0.5 1.8 -0.8
v -0.4 1.8 -0.8
v -0.3 1.8 -0.8
v -0.2 1.8 -0.8
v -0.1 1.8 -0.8
v 0.1 1.8 -0.8
v 0.2 1.8 -0.8
v 0.3 1.8 -0.8
v 0.4 1.8 -0.8
v 0.5 1.8 -0.8
v 0.6 1.8 -0.8
v 0.8 1.8 -0.8
v 0.9 1.8 -0.8
v 1 1.8 -0.8
v -0.9 1.8 -0.9
v -0.8 1.8 -0.9
v -0.6 1.8 -0.9
v -0.3 1.8 -0.9
v -0.2 1.8 -0.9
v -0.1 1.8 -0.9
v 0.1 1.8 -0.9
v 0.2 1.8 -0.9
v 0.3 1.8 -0.9
v 0.6 1.8 -0.9
v 0.8 1.8 -0.9
v 0.9 1.8 -0.9
v -0.8 1.8 -1
v -0.7 1.8 -1
v -0.3 1.8 -1
v -0.2 1.8 -1
v 0.2 1.8 -1
v 0.3 1.8 -1
v 0.7 1.8 -1
v 0.8 1.8 -1
v -0.7 1.8 -1.1
v -0.3 1.8 -1.1
v 0.3 1.8 -1.1
v 0.7 1.8 -1.1
v -0.5 1.9 0.8
v -0.2 1.9 0.8
v 0.2 1.9 0.8
v 0.6 1.9 0.8
v -0.6 1.9 0.7
v -0.5 1.9 0.7
v -0.2 1.9 0.7
v -0.1 1.9 0.7
v 0.1 1.9 0.7
v 0.2 1.9 0.7
v 0.6 1.9 0.7
v 0.7 1.9 0.7
v -0.7 1.9 0.6
v -0.6 1.9 0.6
v -0.5 1.9 0.6
v -0.1 1.9 0.6
v 0.1 1.9 0.6
v 0.6 1.9 0.6
v 0.7 1.9 0.6
v 0.8 1.9 0.6
v -0.4 1.9 0.5
v -0.2 1.9 0.5
v -0.1 1.9 0.5
v 0.1 1.9 0.5
v 0.2 1.9 0.5
v 0.5 1.9 0.5
v -0.2 1.9 0.4
v -0.1 1.9 0.4
v 0.1 1.9 0.4
v 0.2 1.9 0.4
v -0.7 1.9 0.2
v -0.6 1.9 0.2
v -0.4 1.9 0.2
v -0.3 1.9 0.2
v 0.7 1.9 0.2
v 0.8 1.9 0.2
v -0.6 1.9 0.1
v -0.5 1.9 0.1
v -0.4 1.9 0.1
v -0.3 1.9 0.1
v -0.2 1.9 0.1
v 0.4 1.9 0.1
v 0.5 1.9 0.1
v 0.6 1.9 0.1
v 0.7 1.9 0.1
v -0.7 1.9 -5.96046e-08
v -0.5 1.9 -5.96046e-08
v -0.4 1.9 -5.96046e-08
v -0.2 1.9 -5.96046e-08
v -0.1 1.9 -5.96046e-08
v 0.2 1.9 -5.96046e-08
v 0.4 1.9 -5.96046e-08
v 0.6 1.9 -5.96046e-08
v 0.7 1.9 -5.96046e-08
v -0.8 1.9 -0.1
v -0.7 1.9 -0.1
v -0.5 1.9 -0.1
v -0.4 1.9 -0.1
v 0.1 1.9 -0.1
v 0.2 1.9 -0.1
v 0.4 1.9 -0.1
v 0.5 1.9 -0.1
v 0.7 1.9 -0.1
v 0.8 1.9 -0.1
v -0.9 1.9 -0.2
v -0.8 1.9 -0.2
v -0.7 1.9 -0.2
v -0.6 1.9 -0.2
v -0.5 1.9 -0.2
v -0.4 1.9 -0.2
v -0.2 1.9 -0.2
v 0.2 1.9 -0.2
v 0.4 1.9 -0.2
v 0.5 1.9 -0.2
v 0.6 1.9 -0.2
v 0.7 1.9 -0.2
v 0.8 1.9 -0.2
v 0.9 1.9 -0.2
v -1 1.9 -0.3
v -0.9 1.9 -0.3
v -0.8 1.9 -0.3
v -0.6 1.9 -0.3
v -0.2 1.9 -0.3
v -0.1 1.9 -0.3
v 0.1 1.9 -0.3
v 0.2 1.9 -0.3
v 0.6 1.9 -0.3
v 0.8 1.9 -0.3
v 0.9 1.9 -0.3
v 1 1.9 -0.3
v -0.2 1.9 -0.5
v -0.1 1.9 -0.5
v 0.1 1.9 -0.5
v 0.2 1.9 -0.5
v -0.8 1.9 -0.6
v -0.7 1.9 -0.6
v -0.3 1.9 -0.6
v -0.2 1.9 -0.6
v 0.2 1.9 -0.6
v 0.3 1.9 -0.6
v 0.7 1.9 -0.6
v 0.8 1.9 -0.6
v -0.9 1.9 -0.7
v -0.8 1.9 -0.7
v -0.7 1.9 -0.7
v -0.5 1.9 -0.7
v -0.4 1.9 -0.7
v -0.3 1.9 -0.7
v 0.3 1.9 -0.7
v 0.4 1.9 -0.7
v 0.5 1.9 -0.7
v 0.7 1.9 -0.7
v 0.8 1.9 -0.7
v 0.9 1.9 -0.7
v -1 1.9 -0.8
v -0.9 1.9 -0.8
v -0.8 1.9 -0.8
v -0.6 1.9 -0.8
v -0.5 1.9 -0.8
v -0.4 1.9 -0.8
v -0.3 1.9 -0.8
v -0.2 1.9 -0.8
v -0.1 1.9 -0.8
v 0.1 1.9 -0.8
v 0.2 1.9 -0.8
v 0.3 1.9 -0.8
v 0.4 1.9 -0.8
v 0.5 1.9 -0.8
v 0.6 1.9 -0.8
v 0.8 1.9 -0.8
v 0.9 1.9 -0.8
v 1 1.9 -0.8
v -0.9 1.9 -0.9
v -0.8 1.9 -0.9
v -0.6 1.9 -0.9
v -0.3 1.9 -0.9
v -0.2 1.9 -0.9
v -0.1 1.9 -0.9
v 0.1 1.9 -0.9
v 0.2 1.9 -0.9
v 0.3 1.9 -0.9
v 0.6 1.9 -0.9
v 0.8 1.9 -0.9
v 0.9 1.9 -0.9
v -0.8 1.9 -1
v -0.7 1.9 -1
v -0.3 1.9 -1
v -0.2 1.9 -1
v 0.2 1.9 -1
v 0.3 1.9 -1
v 0.7 1.9 -1
v 0.8 1.9 -1
v -0.7 1.9 -1.1
v -0.3 1.9 -1.1
v 0.3 1.9 -1.1
v 0.7 1.9 -1.1

# faces
f 3/1/1 2/1/1 1/1/1
f 4/1/1 2/1/1 3/1/1
f 9/1/1 6/1/1 5/1/1
f 10/1/1 6/1/1 9/1/1
f 11/1/1 8/1/1 7/1/1
f 12/1/1 8/1/1 11/1/1
f 17/1/1 14/1/1 13/1/1
f 18/1/1 14/1/1 17/1/1
f 19/1/1 16/1/1 15/1/1
f 20/1/1 16/1/1 19/1/1
f 27/1/1 22/1/1 21/1/1
f 28/1/1 22/1/1 27/1/1
f 29/1/1 24/1/1 23/1/1
f 30/1/1 24/1/1 29/1/1
f 31/1/1 26/1/1 25/1/1
f 32/1/1 26/1/1 31/1/1
f 37/1/1 34/1/1 33/1/1
f 38/1/1 34/1/1 37/1/1
f 39/1/1 36/1/1 35/1/1
f 40/1/1 36/1/1 39/1/1
f 45/1/1 42/1/1 41/1/1
f 46/1/1 42/1/1 45/1/1
f 47/1/1 44/1/1 43/1/1
f 48/1/1 44/1/1 47/1/1
f 53/1/1 50/1/1 49/1/1
f 54/1/1 50/1/1 53/1/1
f 55/1/1 52/1/1 51/1/1
f 56/1/1 52/1/1 55/1/1
f 61/1/1 58/1/1 57/1/1
f 62/1/1 58/1/1 61/1/1
f 63/1/1 60/1/1 59/1/1
f 64/1/1 60/1/1 63/1/1
f 67/1/1 66/1/1 65/1/1
f 68/1/1 66/1/1 67/1/1
f 69/1/2 70/1/2 71/1/2
f 71/1/2 70/1/2 72/1/2
f 73/1/2 74/1/2 77/1/2
f 77/1/2 74/1/2 78/1/2
f 75/1/2 76/1/2 79/1/2
f 79/1/2 76/1/2 80/1/2
f 81/1/2 82/1/2 85/1/2
f 85/1/2 82/1/2 86/1/2
f 83/1/2 84/1/2 87/1/2
f 87/1/2 84/1/2 88/1/2
f 89/1/2 90/1/2 93/1/2
f 93/1/2 90/1/2 94/1/2
f 91/1/2 92/1/2 95/1/2
f 95/1/2 92/1/2 96/1/2
f 97/1/2 98/1/2 105/1/2
f 105/1/2 98/1/2 106/1/2
f 99/1/2 100/1/2 107/1/2
f 107/1/2 100/1/2 108/1/2
f 101/1/2 102/1/2 109/1/2
f 109/1/2 102/1/2 110/1/2
f 103/1/2 104/1/2 111/1/2
f 111/1/2 104/1/2 112/1/2
f 113/1/2 114/1/2 119/1/2
f 119/1/2 114/1/2 120/1/2
f 115/1/2 116/1/2 121/1/2
f 121/1/2 116/1/2 122/1/2
f 117/1/2 118/1/2 123/1/2
f 123/1/2 118/1/2 124/1/2
f 125/1/2 126/1/2 129/1/2
f 129/1/2 126/1/2 130/1/2
f 127/1/2 128/1/2 131/1/2
f 131/1/2 128/1/2 132/1/2
f 133/1/2 134/1/2 135/1/2
f 135/1/2 134/1/2 136/1/2
f 139/1/3 138/1/3 137/1/3
f 140/1/3 138/1/3 139/1/3
f 143/1/3 142/1/3 141/1/3
f 144/1/3 142/1/3 143/1/3
f 147/1/3 146/1/3 145/1/3
f 148/1/3 146/1/3 147/1/3
f 151/1/3 150/1/3 149/1/3
f 152/1/3 150/1/3 151/1/3
f 155/1/3 154/1/3 153/1/3
f 156/1/3 154/1/3 155/1/3
f 159/1/3 158/1/3 157/1/3
f 160/1/3 158/1/3 159/1/3
f 163/1/3 162/1/3 161/1/3
f 164/1/3 162/1/3 163/1/3
f 167/1/3 166/1/3 165/1/3
f 168/1/3 166/1/3 167/1/3
f 171/1/3 170/1/3 169/1/3
f 172/1/3 170/1/3 171/1/3
f 175/1/3 174/1/3 173/1/3
f 176/1/3 174/1/3 175/1/3
f 179/1/3 178/1/3 177/1/3
f 180/1/3 178/1/3 179/1/3
f 183/1/3 182/1/3 181/1/3
f 184/1/3 182/1/3 183/1/3
f 187/1/3 186/1/3 185/1/3
f 188/1/3 186/1/3 187/1/3
f 191/1/3 190/1/3 189/1/3
f 192/1/3 190/1/3 191/1/3
f 195/1/3 194/1/3 193/1/3
f 196/1/3 194/1/3 195/1/3
f 199/1/3 198/1/3 197/1/3
f 200/1/3 198/1/3 199/1/3
f 203/1/3 202/1/3 201/1/3
f 204/1/3 202/1/3 203/1/3
f 205/1/4 206/1/4 207/1/4
f 207/1/4 206/1/4 208/1/4
f 209/1/4 210/1/4 211/1/4
f 211/1/4 210/1/4 212/1/4
f 213/1/4 214/1/4 215/1/4
f 215/1/4 214/1/4 216/1/4
f 217/1/4 218/1/4 219/1/4
f 219/1/4 218/1/4 220/1/4
f 221/1/4 222/1/4 223/1/4
f 223/1/4 222/1/4 224/1/4
f 225/1/4 226/1/4 227/1/4
f 227/1/4 226/1/4 228/1/4
f 229/1/4 230/1/4 231/1/4
f 231/1/4 230/1/4 232/1/4
f 233/1/4 234/1/4 235/1/4
f 235/1/4 234/1/4 236/1/4
f 237/1/4 238/1/4 239/1/4
f 239/1/4 238/1/4 240/1/4
f 241/1/4 242/1/4 243/1/4
f 243/1/4 242/1/4 244/1/4
f 245/1/4 246/1/4 247/1/4
f 247/1/4 246/1/4 248/1/4
f 249/1/4 250/1/4 251/1/4
f 251/1/4 250/1/4 252/1/4
f 253/1/4 254/1/4 255/1/4
f 255/1/4 254/1/4 256/1/4
f 257/1/4 258/1/4 259/1/4
f 259/1/4 258/1/4 260/1/4
f 261/1/4 262/1/4 263/1/4
f 263/1/4 262/1/4 264/1/4
f 265/1/4 266/1/4 267/1/4
f 267/1/4 266/1/4 268/1/4
f 269/1/4 270/1/4 271/1/4
f 271/1/4 270/1/4 272/1/4
f 278/1/5 274/1/5 273/1/5
f 279/1/5 274/1/5 278/1/5
f 282/1/5 276/1/5 275/1/5
f 283/1/5 276/1/5 282/1/5
f 286/1/5 280/1/5 279/1/5
f 286/1/5 278/1/5 277/1/5
f 286/1/5 279/1/5 278/1/5
f 287/1/5 280/1/5 286/1/5
f 288/1/5 280/1/5 287/1/5
f 289/1/5 284/1/5 283/1/5
f 289/1/5 283/1/5 282/1/5
f 289/1/5 282/1/5 281/1/5
f 290/1/5 284/1/5 289/1/5
f 291/1/5 284/1/5 290/1/5
f 293/2/5 288/2/5 287/2/5
f 294/2/5 288/2/5 293/2/5
f 295/1/5 289/1/5 288/1/5
f 295/2/5 288/2/5 294/2/5
f 296/2/5 290/2/5 289/2/5
f 296/1/5 289/1/5 295/1/5
f 297/2/5 290/2/5 296/2/5
f 298/2/5 290/2/5 297/2/5
f 299/1/5 294/1/5 293/1/5
f 299/2/5 295/2/5 294/2/5
f 299/2/5 296/2/5 295/2/5
f 299/2/5 297/2/5 296/2/5
f 300/2/5 297/2/5 299/2/5
f 301/2/5 297/2/5 300/2/5
f 302/1/5 298/1/5 297/1/5
f 302/2/5 297/2/5 301/2/5
f 303/1/5 287/1/5 286/1/5
f 303/1/5 286/1/5 285/1/5
f 304/1/5 287/1/5 303/1/5
f 305/2/5 293/2/5 287/2/5
f 305/1/5 299/1/5 293/1/5
f 305/1/5 300/1/5 299/1/5
f 306/1/5 300/1/5 305/1/5
f 307/1/5 292/1/5 291/1/5
f 307/1/5 291/1/5 290/1/5
f 308/1/5 292/1/5 307/1/5
f 309/1/5 287/1/5 304/1/5
f 310/2/5 306/2/5 305/2/5
f 310/1/5 287/1/5 309/1/5
f 310/2/5 305/2/5 287/2/5
f 311/2/5 306/2/5 310/2/5
f 312/1/5 300/1/5 306/1/5
f 312/2/5 306/2/5 311/2/5
f 313/1/5 300/1/5 312/1/5
f 314/1/5 298/1/5 302/1/5
f 314/1/5 302/1/5 301/1/5
f 315/2/5 290/2/5 298/2/5
f 315/1/5 298/1/5 314/1/5
f 316/1/5 307/1/5 290/1/5
f 316/2/5 290/2/5 315/2/5
f 317/1/5 307/1/5 316/1/5
f 319/1/5 311/1/5 310/1/5
f 320/2/5 313/2/5 312/2/5
f 320/2/5 312/2/5 311/2/5
f 320/1/5 311/1/5 319/1/5
f 321/1/5 300/1/5 313/1/5
f 321/2/5 313/2/5 320/2/5
f 322/2/5 301/2/5 300/2/5
f 322/1/5 300/1/5 321/1/5
f 323/1/5 314/1/5 301/1/5
f 324/2/5 315/2/5 314/2/5
f 324/1/5 314/1/5 323/1/5
f 325/1/5 316/1/5 315/1/5
f 328/1/5 319/1/5 318/1/5
f 329/2/5 320/2/5 319/2/5
f 329/2/5 321/2/5 320/2/5
f 329/1/5 319/1/5 328/1/5
f 329/2/5 322/2/5 321/2/5
f 330/2/5 322/2/5 329/2/5
f 331/2/5 301/2/5 322/2/5
f 331/2/5 322/2/5 330/2/5
f 331/1/5 323/1/5 301/1/5
f 332/2/5 324/2/5 323/2/5
f 332/1/5 323/1/5 331/1/5
f 333/2/5 315/2/5 324/2/5
f 333/2/5 324/2/5 332/2/5
f 334/1/5 326/1/5 325/1/5
f 334/2/5 315/2/5 333/2/5
f 334/1/5 325/1/5 315/1/5
f 335/1/5 326/1/5 334/1/5
f 338/1/5 328/1/5 327/1/5
f 339/2/5 329/2/5 328/2/5
f 339/1/5 328/1/5 338/1/5
f 340/2/5 329/2/5 339/2/5
f 341/1/5 330/1/5 329/1/5
f 341/2/5 329/2/5 340/2/5
f 342/2/5 332/2/5 331/2/5
f 342/1/5 330/1/5 341/1/5
f 342/2/5 333/2/5 332/2/5
f 342/2/5 331/2/5 330/2/5
f 343/2/5 333/2/5 342/2/5
f 344/2/5 333/2/5 343/2/5
f 345/1/5 334/1/5 333/1/5
f 345/2/5 333/2/5 344/2/5
f 346/2/5 335/2/5 334/2/5
f 346/1/5 334/1/5 345/1/5
f 347/2/5 335/2/5 346/2/5
f 348/1/5 336/1/5 335/1/5
f 348/2/5 335/2/5 347/2/5
f 349/1/5 336/1/5 348/1/5
f 352/1/5 338/1/5 337/1/5
f 353/2/5 339/2/5 338/2/5
f 353/2/5 340/2/5 339/2/5
f 353/1/5 338/1/5 352/1/5
f 354/1/5 341/1/5 340/1/5
f 354/2/5 340/2/5 353/2/5
f 354/1/5 342/1/5 341/1/5
f 354/1/5 343/1/5 342/1/5
f 355/2/5 344/2/5 343/2/5
f 355/1/5 343/1/5 354/1/5
f 356/2/5 344/2/5 355/2/5
f 357/2/5 344/2/5 356/2/5
f 358/1/5 347/1/5 346/1/5
f 358/2/5 344/2/5 357/2/5
f 358/1/5 345/1/5 344/1/5
f 358/1/5 346/1/5 345/1/5
f 359/2/5 349/2/5 348/2/5
f 359/1/5 347/1/5 358/1/5
f 359/2/5 348/2/5 347/2/5
f 360/1/5 350/1/5 349/1/5
f 360/2/5 349/2/5 359/2/5
f 361/1/5 350/1/5 360/1/5
f 363/1/5 356/1/5 355/1/5
f 363/1/5 354/1/5 353/1/5
f 363/1/5 355/1/5 354/1/5
f 364/2/5 357/2/5 356/2/5
f 364/1/5 356/1/5 363/1/5
f 365/1/5 358/1/5 357/1/5
f 365/2/5 357/2/5 364/2/5
f 365/1/5 359/1/5 358/1/5
f 365/1/5 360/1/5 359/1/5
f 366/1/5 360/1/5 365/1/5
f 367/2/5 353/2/5 352/2/5
f 367/1/5 363/1/5 353/1/5
f 368/1/5 363/1/5 367/1/5
f 369/1/5 363/1/5 368/1/5
f 370/2/5 366/2/5 365/2/5
f 370/1/5 363/1/5 369/1/5
f 370/2/5 364/2/5 363/2/5
f 370/2/5 365/2/5 364/2/5
f 371/1/5 360/1/5 366/1/5
f 371/2/5 366/2/5 370/2/5
f 372/1/5 360/1/5 371/1/5
f 373/1/5 360/1/5 372/1/5
f 374/2/5 361/2/5 360/2/5
f 374/1/5 360/1/5 373/1/5
f 375/1/5 352/1/5 351/1/5
f 375/2/5 368/2/5 367/2/5
f 375/2/5 367/2/5 352/2/5
f 376/2/5 368/2/5 375/2/5
f 377/1/5 369/1/5 368/1/5
f 377/2/5 368/2/5 376/2/5
f 378/1/5 369/1/5 377/1/5
f 379/1/5 369/1/5 378/1/5
f 380/2/5 370/2/5 369/2/5
f 380/1/5 369/1/5 379/1/5
f 381/1/5 373/1/5 372/1/5
f 381/2/5 372/2/5 371/2/5
f 382/1/5 373/1/5 381/1/5
f 383/1/5 373/1/5 382/1/5
f 384/2/5 374/2/5 373/2/5
f 384/1/5 373/1/5 383/1/5
f 385/2/5 361/2/5 374/2/5
f 385/2/5 374/2/5 384/2/5
f 386/1/5 362/1/5 361/1/5
f 386/2/5 361/2/5 385/2/5
f 387/1/5 376/1/5 375/1/5
f 387/1/5 375/1/5 351/1/5
f 388/1/5 376/1/5 387/1/5
f 389/2/5 377/2/5 376/2/5
f 389/1/5 376/1/5 388/1/5
f 389/2/5 378/2/5 377/2/5
f 390/2/5 378/2/5 389/2/5
f 391/1/5 379/1/5 378/1/5
f 391/2/5 378/2/5 390/2/5
f 392/2/5 380/2/5 379/2/5
f 392/1/5 379/1/5 391/1/5
f 393/2/5 370/2/5 380/2/5
f 393/2/5 380/2/5 392/2/5
f 394/1/5 371/1/5 370/1/5
f 394/2/5 370/2/5 393/2/5
f 395/1/5 371/1/5 394/1/5
f 396/1/5 371/1/5 395/1/5
f 397/2/5 381/2/5 371/2/5
f 397/1/5 371/1/5 396/1/5
f 397/2/5 382/2/5 381/2/5
f 398/2/5 382/2/5 397/2/5
f 399/1/5 383/1/5 382/1/5
f 399/2/5 382/2/5 398/2/5
f 400/2/5 384/2/5 383/2/5
f 400/1/5 383/1/5 399/1/5
f 400/2/5 385/2/5 384/2/5
f 401/2/5 385/2/5 400/2/5
f 402/1/5 386/1/5 385/1/5
f 402/2/5 385/2/5 401/2/5
f 403/1/5 362/1/5 386/1/5
f 403/1/5 386/1/5 402/1/5
f 404/1/5 362/1/5 403/1/5
f 405/1/5 390/1/5 389/1/5
f 405/1/5 389/1/5 388/1/5
f 406/1/5 390/1/5 405/1/5
f 407/2/5 392/2/5 391/2/5
f 407/1/5 390/1/5 406/1/5
f 407/2/5 391/2/5 390/2/5
f 407/2/5 393/2/5 392/2/5
f 408/1/5 394/1/5 393/1/5
f 408/2/5 393/2/5 407/2/5
f 408/1/5 395/1/5 394/1/5
f 409/1/5 395/1/5 408/1/5
f 410/1/5 395/1/5 409/1/5
f 411/1/5 398/1/5 397/1/5
f 411/1/5 397/1/5 396/1/5
f 412/1/5 398/1/5 411/1/5
f 413/2/5 399/2/5 398/2/5
f 413/1/5 398/1/5 412/1/5
f 413/2/5 401/2/5 400/2/5
f 413/2/5 400/2/5 399/2/5
f 414/1/5 402/1/5 401/1/5
f 414/2/5 401/2/5 413/2/5
f 414/1/5 403/1/5 402/1/5
f 415/1/5 403/1/5 414/1/5
f 416/1/5 403/1/5 415/1/5
f 417/1/5 409/1/5 408/1/5
f 417/1/5 407/1/5 406/1/5
f 417/1/5 408/1/5 407/1/5
f 418/1/5 409/1/5 417/1/5
f 419/1/5 409/1/5 418/1/5
f 420/1/5 409/1/5 419/1/5
f 421/1/5 413/1/5 412/1/5
f 421/1/5 415/1/5 414/1/5
f 421/1/5 414/1/5 413/1/5
f 422/1/5 415/1/5 421/1/5
f 423/1/5 415/1/5 422/1/5
f 424/1/5 415/1/5 423/1/5
f 425/1/5 419/1/5 418/1/5
f 426/1/5 419/1/5 425/1/5
f 427/1/5 423/1/5 422/1/5
f 428/1/5 423/1/5 427/1/5
f 429/1/6 430/1/6 434/1/6
f 434/1/6 430/1/6 435/1/6
f 431/1/6 432/1/6 438/1/6
f 438/1/6 432/1/6 439/1/6
f 435/1/6 436/1/6 442/1/6
f 433/1/6 434/1/6 442/1/6
f 434/1/6 435/1/6 442/1/6
f 442/1/6 436/1/6 443/1/6
f 443/1/6 436/1/6 444/1/6
f 439/1/6 440/1/6 445/1/6
f 438/1/6 439/1/6 445/1/6
f 437/1/6 438/1/6 445/1/6
f 445/1/6 440/1/6 446/1/6
f 446/1/6 440/1/6 447/1/6
f 443/2/6 444/2/6 449/2/6
f 449/2/6 444/2/6 450/2/6
f 444/1/6 445/1/6 451/1/6
f 450/2/6 444/2/6 451/2/6
f 445/2/6 446/2/6 452/2/6
f 451/1/6 445/1/6 452/1/6
f 452/2/6 446/2/6 453/2/6
f 453/2/6 446/2/6 454/2/6
f 449/1/6 450/1/6 455/1/6
f 450/2/6 451/2/6 455/2/6
f 451/2/6 452/2/6 455/2/6
f 452/2/6 453/2/6 455/2/6
f 455/2/6 453/2/6 456/2/6
f 456/2/6 453/2/6 457/2/6
f 453/1/6 454/1/6 458/1/6
f 457/2/6 453/2/6 458/2/6
f 442/1/6 443/1/6 459/1/6
f 441/1/6 442/1/6 459/1/6
f 459/1/6 443/1/6 460/1/6
f 443/2/6 449/2/6 461/2/6
f 449/1/6 455/1/6 461/1/6
f 455/1/6 456/1/6 461/1/6
f 461/1/6 456/1/6 462/1/6
f 447/1/6 448/1/6 463/1/6
f 446/1/6 447/1/6 463/1/6
f 463/1/6 448/1/6 464/1/6
f 460/1/6 443/1/6 465/1/6
f 461/2/6 462/2/6 466/2/6
f 465/1/6 443/1/6 466/1/6
f 443/2/6 461/2/6 466/2/6
f 466/2/6 462/2/6 467/2/6
f 462/1/6 456/1/6 468/1/6
f 467/2/6 462/2/6 468/2/6
f 468/1/6 456/1/6 469/1/6
f 458/1/6 454/1/6 470/1/6
f 457/1/6 458/1/6 470/1/6
f 454/2/6 446/2/6 471/2/6
f 470/1/6 454/1/6 471/1/6
f 446/1/6 463/1/6 472/1/6
f 471/2/6 446/2/6 472/2/6
f 472/1/6 463/1/6 473/1/6
f 466/1/6 467/1/6 475/1/6
f 468/2/6 469/2/6 476/2/6
f 467/2/6 468/2/6 476/2/6
f 475/1/6 467/1/6 476/1/6
f 469/1/6 456/1/6 477/1/6
f 476/2/6 469/2/6 477/2/6
f 456/2/6 457/2/6 478/2/6
f 477/1/6 456/1/6 478/1/6
f 457/1/6 470/1/6 479/1/6
f 470/2/6 471/2/6 480/2/6
f 479/1/6 470/1/6 480/1/6
f 471/1/6 472/1/6 481/1/6
f 474/1/6 475/1/6 484/1/6
f 475/2/6 476/2/6 485/2/6
f 476/2/6 477/2/6 485/2/6
f 484/1/6 475/1/6 485/1/6
f 477/2/6 478/2/6 485/2/6
f 485/2/6 478/2/6 486/2/6
f 478/2/6 457/2/6 487/2/6
f 486/2/6 478/2/6 487/2/6
f 457/1/6 479/1/6 487/1/6
f 479/2/6 480/2/6 488/2/6
f 487/1/6 479/1/6 488/1/6
f 480/2/6 471/2/6 489/2/6
f 488/2/6 480/2/6 489/2/6
f 481/1/6 482/1/6 490/1/6
f 489/2/6 471/2/6 490/2/6
f 471/1/6 481/1/6 490/1/6
f 490/1/6 482/1/6 491/1/6
f 483/1/6 484/1/6 494/1/6
f 484/2/6 485/2/6 495/2/6
f 494/1/6 484/1/6 495/1/6
f 495/2/6 485/2/6 496/2/6
f 485/1/6 486/1/6 497/1/6
f 496/2/6 485/2/6 497/2/6
f 487/2/6 488/2/6 498/2/6
f 497/1/6 486/1/6 498/1/6
f 488/2/6 489/2/6 498/2/6
f 486/2/6 487/2/6 498/2/6
f 498/2/6 489/2/6 499/2/6
f 499/2/6 489/2/6 500/2/6
f 489/1/6 490/1/6 501/1/6
f 500/2/6 489/2/6 501/2/6
f 490/2/6 491/2/6 502/2/6
f 501/1/6 490/1/6 502/1/6
f 502/2/6 491/2/6 503/2/6
f 491/1/6 492/1/6 504/1/6
f 503/2/6 491/2/6 504/2/6
f 504/1/6 492/1/6 505/1/6
f 493/1/6 494/1/6 508/1/6
f 494/2/6 495/2/6 509/2/6
f 495/2/6 496/2/6 509/2/6
f 508/1/6 494/1/6 509/1/6
f 496/1/6 497/1/6 510/1/6
f 509/2/6 496/2/6 510/2/6
f 497/1/6 498/1/6 510/1/6
f 498/1/6 499/1/6 510/1/6
f 499/2/6 500/2/6 511/2/6
f 510/1/6 499/1/6 511/1/6
f 511/2/6 500/2/6 512/2/6
f 512/2/6 500/2/6 513/2/6
f 502/1/6 503/1/6 514/1/6
f 513/2/6 500/2/6 514/2/6
f 500/1/6 501/1/6 514/1/6
f 501/1/6 502/1/6 514/1/6
f 504/2/6 505/2/6 515/2/6
f 514/1/6 503/1/6 515/1/6
f 503/2/6 504/2/6 515/2/6
f 505/1/6 506/1/6 516/1/6
f 515/2/6 505/2/6 516/2/6
f 516/1/6 506/1/6 517/1/6
f 511/1/6 512/1/6 519/1/6
f 509/1/6 510/1/6 519/1/6
f 510/1/6 511/1/6 519/1/6
f 512/2/6 513/2/6 520/2/6
f 519/1/6 512/1/6 520/1/6
f 513/1/6 514/1/6 521/1/6
f 520/2/6 513/2/6 521/2/6
f 514/1/6 515/1/6 521/1/6
f 515/1/6 516/1/6 521/1/6
f 521/1/6 516/1/6 522/1/6
f 508/2/6 509/2/6 523/2/6
f 509/1/6 519/1/6 523/1/6
f 523/1/6 519/1/6 524/1/6
f 524/1/6 519/1/6 525/1/6
f 521/2/6 522/2/6 526/2/6
f 525/1/6 519/1/6 526/1/6
f 519/2/6 520/2/6 526/2/6
f 520/2/6 521/2/6 526/2/6
f 522/1/6 516/1/6 527/1/6
f 526/2/6 522/2/6 527/2/6
f 527/1/6 516/1/6 528/1/6
f 528/1/6 516/1/6 529/1/6
f 516/2/6 517/2/6 530/2/6
f 529/1/6 516/1/6 530/1/6
f 507/1/6 508/1/6 531/1/6
f 523/2/6 524/2/6 531/2/6
f 508/2/6 523/2/6 531/2/6
f 531/2/6 524/2/6 532/2/6
f 524/1/6 525/1/6 533/1/6
f 532/2/6 524/2/6 533/2/6
f 533/1/6 525/1/6 534/1/6
f 534/1/6 525/1/6 535/1/6
f 525/2/6 526/2/6 536/2/6
f 535/1/6 525/1/6 536/1/6
f 528/1/6 529/1/6 537/1/6
f 527/2/6 528/2/6 537/2/6
f 537/1/6 529/1/6 538/1/6
f 538/1/6 529/1/6 539/1/6
f 529/2/6 530/2/6 540/2/6
f 539/1/6 529/1/6 540/1/6
f 530/2/6 517/2/6 541/2/6
f 540/2/6 530/2/6 541/2/6
f 517/1/6 518/1/6 542/1/6
f 541/2/6 517/2/6 542/2/6
f 531/1/6 532/1/6 543/1/6
f 507/1/6 531/1/6 543/1/6
f 543/1/6 532/1/6 544/1/6
f 532/2/6 533/2/6 545/2/6
f 544/1/6 532/1/6 545/1/6
f 533/2/6 534/2/6 545/2/6
f 545/2/6 534/2/6 546/2/6
f 534/1/6 535/1/6 547/1/6
f 546/2/6 534/2/6 547/2/6
f 535/2/6 536/2/6 548/2/6
f 547/1/6 535/1/6 548/1/6
f 536/2/6 526/2/6 549/2/6
f 548/2/6 536/2/6 549/2/6
f 526/1/6 527/1/6 550/1/6
f 549/2/6 526/2/6 550/2/6
f 550/1/6 527/1/6 551/1/6
f 551/1/6 527/1/6 552/1/6
f 527/2/6 537/2/6 553/2/6
f 552/1/6 527/1/6 553/1/6
f 537/2/6 538/2/6 553/2/6
f 553/2/6 538/2/6 554/2/6
f 538/1/6 539/1/6 555/1/6
f 554/2/6 538/2/6 555/2/6
f 539/2/6 540/2/6 556/2/6
f 555/1/6 539/1/6 556/1/6
f 540/2/6 541/2/6 556/2/6
f 556/2/6 541/2/6 557/2/6
f 541/1/6 542/1/6 558/1/6
f 557/2/6 541/2/6 558/2/6
f 542/1/6 518/1/6 559/1/6
f 558/1/6 542/1/6 559/1/6
f 559/1/6 518/1/6 560/1/6
f 545/1/6 546/1/6 561/1/6
f 544/1/6 545/1/6 561/1/6
f 561/1/6 546/1/6 562/1/6
f 547/2/6 548/2/6 563/2/6
f 562/1/6 546/1/6 563/1/6
f 546/2/6 547/2/6 563/2/6
f 548/2/6 549/2/6 563/2/6
f 549/1/6 550/1/6 564/1/6
f 563/2/6 549/2/6 564/2/6
f 550/1/6 551/1/6 564/1/6
f 564/1/6 551/1/6 565/1/6
f 565/1/6 551/1/6 566/1/6
f 553/1/6 554/1/6 567/1/6
f 552/1/6 553/1/6 567/1/6
f 567/1/6 554/1/6 568/1/6
f 554/2/6 555/2/6 569/2/6
f 568/1/6 554/1/6 569/1/6
f 556/2/6 557/2/6 569/2/6
f 555/2/6 556/2/6 569/2/6
f 557/1/6 558/1/6 570/1/6
f 569/2/6 557/2/6 570/2/6
f 558/1/6 559/1/6 570/1/6
f 570/1/6 559/1/6 571/1/6
f 571/1/6 559/1/6 572/1/6
f 564/1/6 565/1/6 573/1/6
f 562/1/6 563/1/6 573/1/6
f 563/1/6 564/1/6 573/1/6
f 573/1/6 565/1/6 574/1/6
f 574/1/6 565/1/6 575/1/6
f 575/1/6 565/1/6 576/1/6
f 568/1/6 569/1/6 577/1/6
f 570/1/6 571/1/6 577/1/6
f 569/1/6 570/1/6 577/1/6
f 577/1/6 571/1/6 578/1/6
f 578/1/6 571/1/6 579/1/6
f 579/1/6 571/1/6 580/1/6
f 574/1/6 575/1/6 581/1/6
f 581/1/6 575/1/6 582/1/6
f 578/1/6 579/1/6 583/1/6
f 583/1/6 579/1/6 584/1/6
